<?xml version="1.0" encoding="utf-8"?>
<!-- Generator: Adobe Illustrator 14.0.0, SVG Export Plug-In . SVG Version: 6.00 Build 43363)  -->
<!DOCTYPE svg PUBLIC "-//W3C//DTD SVG 1.1//EN" "http://www.w3.org/Graphics/SVG/1.1/DTD/svg11.dtd">
<svg version="1.1" id="Layer_1" xmlns="http://www.w3.org/2000/svg" xmlns:xlink="http://www.w3.org/1999/xlink" x="0px" y="0px"
	 width="95px" height="95px" viewBox="0 0 95 95" enable-background="new 0 0 95 95" xml:space="preserve">
<g>
	<path fill="none" stroke="#231F20" stroke-width="1.5" stroke-linejoin="round" d="M73.821,4.922H29.96
		c-2.893,0-5.236,2.346-5.236,5.236v23.149l-8.781,8.015v7.679h4.391v8.35l-4.197,4.201v22.514c0,0-1.529,6.012,5.818,6.012h8.006
		h3.347h40.514c2.891,0,5.236-2.346,5.236-5.238V10.159C79.058,7.268,76.712,4.922,73.821,4.922z"/>
	<g>
		
			<line fill="none" stroke="#231F20" stroke-width="1.5" stroke-linecap="round" stroke-linejoin="round" x1="30.385" y1="9.681" x2="30.385" y2="26.044"/>
		
			<line fill="none" stroke="#231F20" stroke-width="1.5" stroke-linecap="round" stroke-linejoin="round" x1="35.729" y1="9.681" x2="35.729" y2="26.044"/>
		
			<line fill="none" stroke="#231F20" stroke-width="1.5" stroke-linecap="round" stroke-linejoin="round" x1="41.072" y1="9.681" x2="41.072" y2="26.044"/>
		
			<line fill="none" stroke="#231F20" stroke-width="1.5" stroke-linecap="round" stroke-linejoin="round" x1="46.414" y1="9.681" x2="46.414" y2="26.044"/>
		
			<line fill="none" stroke="#231F20" stroke-width="1.5" stroke-linecap="round" stroke-linejoin="round" x1="51.758" y1="9.681" x2="51.758" y2="26.044"/>
		
			<line fill="none" stroke="#231F20" stroke-width="1.5" stroke-linecap="round" stroke-linejoin="round" x1="57.101" y1="9.681" x2="57.101" y2="26.044"/>
		
			<line fill="none" stroke="#231F20" stroke-width="1.5" stroke-linecap="round" stroke-linejoin="round" x1="62.444" y1="9.681" x2="62.444" y2="26.044"/>
		
			<line fill="none" stroke="#231F20" stroke-width="1.5" stroke-linecap="round" stroke-linejoin="round" x1="67.787" y1="9.681" x2="67.787" y2="26.044"/>
		
			<line fill="none" stroke="#231F20" stroke-width="1.5" stroke-linecap="round" stroke-linejoin="round" x1="73.13" y1="9.681" x2="73.13" y2="26.044"/>
	</g>
</g>
</svg>
