<?xml version="1.0" encoding="utf-8"?>
<!-- Generator: Adobe Illustrator 14.0.0, SVG Export Plug-In . SVG Version: 6.00 Build 43363)  -->
<!DOCTYPE svg PUBLIC "-//W3C//DTD SVG 1.1//EN" "http://www.w3.org/Graphics/SVG/1.1/DTD/svg11.dtd">
<svg version="1.1" id="Layer_1" xmlns="http://www.w3.org/2000/svg" xmlns:xlink="http://www.w3.org/1999/xlink" x="0px" y="0px"
	 width="95px" height="95px" viewBox="0 0 95 95" enable-background="new 0 0 95 95" xml:space="preserve">
<g>
	<path d="M79.302,91.293H15.704c-7.862,0-14.259-6.396-14.259-14.26l6.693-60.109C9.209,7.515,14.004,2.745,22.393,2.745h49.266
		c7.809,0,13.137,5.297,14.253,14.169l7.644,60.029C93.561,84.896,87.164,91.293,79.302,91.293L79.302,91.293z M22.393,4.178
		c-7.646,0-11.842,4.222-12.83,12.906L2.875,77.113c0.004,6.992,5.758,12.746,12.83,12.746h63.598
		c7.071,0,12.825-5.754,12.825-12.826l-7.638-59.939C83.473,9.005,78.676,4.178,71.658,4.178H22.393L22.393,4.178z"/>
	<path d="M79.465,91.455H15.422c-7.68,0-13.928-6.25-13.928-13.93v-1.291c0-7.682,6.248-13.928,13.928-13.928h64.042
		c7.68,0,13.928,6.246,13.928,13.928v1.291C93.393,85.205,87.145,91.455,79.465,91.455L79.465,91.455z M15.422,63.738
		c-6.89,0-12.496,5.605-12.496,12.496v1.291c0,6.891,5.605,12.496,12.496,12.496h64.042c6.89,0,12.494-5.605,12.494-12.496v-1.291
		c0-6.891-5.604-12.496-12.494-12.496H15.422L15.422,63.738z"/>
	<path d="M5.015,57.188l-1.2-0.783c2.586-3.955,6.947-6.316,11.667-6.316h64.043c4.428,0,8.634,2.137,11.25,5.717l-1.157,0.846
		c-2.348-3.211-6.121-5.129-10.093-5.129H15.482C11.248,51.521,7.335,53.641,5.015,57.188L5.015,57.188z"/>
	<path d="M80.004,79.15c-0.879,0-1.593-0.715-1.593-1.592c0-0.879,0.714-1.594,1.593-1.594c0.877,0,1.593,0.715,1.593,1.594
		C81.597,78.436,80.881,79.15,80.004,79.15L80.004,79.15z M80.004,76.443c-0.615,0-1.116,0.5-1.116,1.115s0.501,1.115,1.116,1.115
		c0.614,0,1.115-0.5,1.115-1.115S80.618,76.443,80.004,76.443L80.004,76.443z"/>
</g>
</svg>
