<?xml version="1.0" encoding="utf-8"?>
<!-- Generator: Adobe Illustrator 14.0.0, SVG Export Plug-In . SVG Version: 6.00 Build 43363)  -->
<!DOCTYPE svg PUBLIC "-//W3C//DTD SVG 1.1//EN" "http://www.w3.org/Graphics/SVG/1.1/DTD/svg11.dtd">
<svg version="1.1" id="Layer_1" xmlns="http://www.w3.org/2000/svg" xmlns:xlink="http://www.w3.org/1999/xlink" x="0px" y="0px"
	 width="95px" height="95px" viewBox="0 0 95 95" enable-background="new 0 0 95 95" xml:space="preserve">
<path d="M30.324,92.807L30.324,92.807c-0.792,0-1.495-0.34-1.88-0.91c-0.579-0.855-0.322-1.877-0.134-2.623l0.065-0.267
	c0.033-0.144,7.737-33.498,9.131-39.531H17.523c-1.566,0-3.064-0.658-3.816-1.677c-0.411-0.558-0.815-1.498-0.41-2.812
	c0.011-0.035,0.024-0.068,0.04-0.101L32.05,5.479c1.019-2.048,1.633-3.285,3.863-3.285h22.391c1.528,0,3.421,0.573,4.203,1.852
	c0.344,0.562,0.62,1.496-0.023,2.755L50.615,33.239h28.793c0.326,0,0.643,0.062,0.943,0.185c0.271,0.117,0.518,0.279,0.739,0.489
	c0.301,0.31,0.471,0.555,0.592,0.841c0.251,0.611,0.251,1.277,0.002,1.882c-0.112,0.26-0.262,0.488-0.464,0.708
	c-0.083,0.101-0.295,0.343-0.908,1.028L33.688,90.301c-0.002,0.003-0.005,0.005-0.007,0.008c-0.08,0.088-1.598,1.778-1.598,1.778
	C31.657,92.548,31.019,92.807,30.324,92.807L30.324,92.807z M14.733,45.484c-0.16,0.555-0.096,1.018,0.195,1.413
	c0.468,0.634,1.51,1.061,2.594,1.061h20.937c0.231,0,0.45,0.105,0.594,0.286s0.198,0.418,0.146,0.644c0,0-9.3,40.264-9.345,40.46
	l-0.073,0.297c-0.124,0.493-0.279,1.107-0.08,1.402c0.099,0.146,0.349,0.242,0.623,0.242l0,0c0.261,0,0.511-0.088,0.637-0.224
	c0.892-0.993,1.347-1.5,1.62-1.76l-0.021-0.02L79.183,37.36l0,0c-0.001,0,0.765-0.853,0.867-0.98
	c0.134-0.147,0.195-0.238,0.235-0.332c0.09-0.218,0.09-0.482-0.004-0.711c-0.028-0.064-0.074-0.155-0.258-0.344
	c-0.066-0.063-0.161-0.127-0.259-0.168c-0.104-0.043-0.23-0.068-0.356-0.068H49.441c-0.257,0-0.497-0.13-0.637-0.346
	c-0.14-0.216-0.16-0.489-0.056-0.724L61.114,6.144c0.408-0.8,0.175-1.181,0.099-1.306c-0.448-0.731-1.833-1.126-2.909-1.126H35.913
	c-1.25,0-1.481,0.387-2.503,2.443l-0.321,0.642L14.733,45.484L14.733,45.484z"/>
</svg>
