<?xml version="1.0" encoding="utf-8"?>
<!-- Generator: Adobe Illustrator 14.0.0, SVG Export Plug-In . SVG Version: 6.00 Build 43363)  -->
<!DOCTYPE svg PUBLIC "-//W3C//DTD SVG 1.1//EN" "http://www.w3.org/Graphics/SVG/1.1/DTD/svg11.dtd">
<svg version="1.1" id="Layer_1" xmlns="http://www.w3.org/2000/svg" xmlns:xlink="http://www.w3.org/1999/xlink" x="0px" y="0px"
	 width="95px" height="95px" viewBox="0 0 95 95" enable-background="new 0 0 95 95" xml:space="preserve">
<path d="M46.824,91.317c-10.95,0-19.916-7.457-27.973-15.514C9.452,66.405,4.843,58.637,3.907,50.616
	c-1.179-10.1,3.712-20.472,14.951-31.711C29.058,8.705,38.47,3.746,47.63,3.746c11.489,0,21.063,8.101,28.12,15.159
	c6.855,6.855,14.035,15.165,15.31,24.812c1.314,9.97-3.693,20.463-15.312,32.08C65.306,86.239,55.844,91.317,46.824,91.317
	L46.824,91.317z M47.63,5.33c-8.719,0-17.765,4.807-27.653,14.695C9.104,30.899,4.362,40.846,5.48,50.432
	c0.892,7.643,5.361,15.123,14.49,24.252C27.788,82.5,36.45,89.732,46.824,89.732c8.579,0,17.674-4.924,27.805-15.056
	c11.246-11.245,16.106-21.305,14.86-30.753c-1.211-9.178-8.191-17.231-14.858-23.899C67.789,13.183,58.537,5.33,47.63,5.33
	L47.63,5.33z"/>
<g>
	<path d="M64.506,48.323H30.494c-0.437,0-0.792-0.354-0.792-0.792c0-0.437,0.354-0.792,0.792-0.792h34.012
		c0.438,0,0.792,0.354,0.792,0.792C65.298,47.969,64.943,48.323,64.506,48.323L64.506,48.323z"/>
	<path d="M47.501,65.331c-0.437,0-0.792-0.354-0.792-0.792V30.524c0-0.437,0.355-0.792,0.792-0.792c0.438,0,0.792,0.354,0.792,0.792
		v34.015C48.293,64.977,47.938,65.331,47.501,65.331L47.501,65.331z"/>
</g>
</svg>
