<?xml version="1.0" encoding="utf-8"?>
<!-- Generator: Adobe Illustrator 14.0.0, SVG Export Plug-In . SVG Version: 6.00 Build 43363)  -->
<!DOCTYPE svg PUBLIC "-//W3C//DTD SVG 1.1//EN" "http://www.w3.org/Graphics/SVG/1.1/DTD/svg11.dtd">
<svg version="1.1" id="Layer_1" xmlns="http://www.w3.org/2000/svg" xmlns:xlink="http://www.w3.org/1999/xlink" x="0px" y="0px"
	 width="16px" height="16px" viewBox="0 0 16 16" enable-background="new 0 0 16 16" xml:space="preserve">
<g>
	<path d="M8.842,6.947L7.969,9.975c-0.047,0.174-0.07,0.287-0.07,0.346c0,0.027,0.014,0.055,0.038,0.084
		c0.024,0.027,0.052,0.041,0.08,0.041c0.049,0,0.097-0.021,0.143-0.063c0.13-0.105,0.284-0.297,0.46-0.572l0.148,0.084
		c-0.431,0.748-0.888,1.123-1.371,1.123c-0.184,0-0.33-0.051-0.438-0.156c-0.11-0.104-0.165-0.234-0.165-0.395
		c0-0.105,0.024-0.24,0.074-0.402L7.46,8.027c0.057-0.194,0.084-0.341,0.084-0.439c0-0.064-0.026-0.12-0.082-0.17
		C7.408,7.369,7.335,7.344,7.243,7.344c-0.047,0-0.098,0.002-0.154,0.005L7.143,7.18l1.445-0.233H8.842z M8.577,4.983
		c0.176,0,0.324,0.062,0.447,0.185C9.146,5.292,9.207,5.44,9.207,5.613c0,0.173-0.062,0.321-0.187,0.442
		C8.897,6.176,8.75,6.237,8.577,6.237c-0.17,0-0.315-0.061-0.437-0.182c-0.122-0.122-0.184-0.27-0.184-0.442
		c0-0.172,0.061-0.321,0.181-0.445C8.258,5.045,8.403,4.983,8.577,4.983z"/>
</g>
<path d="M8,15.369c-4.064,0-7.369-3.306-7.369-7.369c0-4.064,3.305-7.369,7.369-7.369S15.369,3.936,15.369,8
	C15.369,12.063,12.064,15.369,8,15.369L8,15.369z M8,1.523C4.429,1.523,1.523,4.428,1.523,8c0,3.571,2.905,6.477,6.477,6.477
	S14.477,11.571,14.477,8C14.477,4.428,11.572,1.523,8,1.523L8,1.523z"/>
</svg>
