<?xml version="1.0" encoding="utf-8"?>
<!-- Generator: Adobe Illustrator 14.0.0, SVG Export Plug-In . SVG Version: 6.00 Build 43363)  -->
<!DOCTYPE svg PUBLIC "-//W3C//DTD SVG 1.1//EN" "http://www.w3.org/Graphics/SVG/1.1/DTD/svg11.dtd">
<svg version="1.1" id="Layer_1" xmlns="http://www.w3.org/2000/svg" xmlns:xlink="http://www.w3.org/1999/xlink" x="0px" y="0px"
	 width="16px" height="16px" viewBox="0 0 16 16" enable-background="new 0 0 16 16" xml:space="preserve">
<g>
	<path d="M8.826,6.965L7.969,9.938c-0.045,0.171-0.066,0.284-0.066,0.339c0,0.028,0.011,0.056,0.035,0.084
		c0.024,0.027,0.05,0.041,0.079,0.041c0.047,0,0.095-0.021,0.14-0.063c0.129-0.104,0.279-0.292,0.452-0.562l0.146,0.084
		c-0.423,0.734-0.871,1.103-1.347,1.103c-0.18,0-0.323-0.053-0.432-0.154c-0.107-0.102-0.161-0.23-0.161-0.388
		c0-0.104,0.024-0.235,0.072-0.396L7.47,8.026c0.055-0.19,0.083-0.335,0.083-0.432c0-0.063-0.027-0.118-0.08-0.166
		C7.418,7.38,7.347,7.355,7.256,7.355c-0.045,0-0.096,0.002-0.149,0.005l0.052-0.167l1.418-0.229H8.826z M8.566,5.035
		c0.174,0,0.32,0.062,0.439,0.183c0.121,0.122,0.18,0.267,0.18,0.437S9.125,5.97,9.004,6.089c-0.122,0.119-0.268,0.18-0.438,0.18
		c-0.166,0-0.31-0.061-0.429-0.18s-0.18-0.265-0.18-0.435s0.06-0.314,0.178-0.437C8.252,5.097,8.396,5.035,8.566,5.035z"/>
</g>
<path d="M8,15.264c-4.005,0-7.264-3.259-7.264-7.264c0-4.005,3.259-7.264,7.264-7.264S15.264,3.995,15.264,8
	C15.264,12.005,12.005,15.264,8,15.264L8,15.264z M8,1.662C4.505,1.662,1.662,4.505,1.662,8S4.505,14.338,8,14.338
	S14.338,11.495,14.338,8S11.495,1.662,8,1.662L8,1.662z"/>
</svg>
