<?xml version="1.0" encoding="utf-8"?>
<!-- Generator: Adobe Illustrator 14.0.0, SVG Export Plug-In . SVG Version: 6.00 Build 43363)  -->
<!DOCTYPE svg PUBLIC "-//W3C//DTD SVG 1.1//EN" "http://www.w3.org/Graphics/SVG/1.1/DTD/svg11.dtd">
<svg version="1.1" id="Layer_1" xmlns="http://www.w3.org/2000/svg" xmlns:xlink="http://www.w3.org/1999/xlink" x="0px" y="0px"
	 width="148px" height="39px" viewBox="0 0 148 39" enable-background="new 0 0 148 39" xml:space="preserve">
<path fill="#55ADD3" d="M15.486,1.43c1.22,1.248,2.345,2.585,3.536,3.861c-1.054,0.429-2.1,0.878-3.151,1.316
	c-0.379,0.213-0.784-0.009-1.14-0.158c-0.896-0.412-1.818-0.763-2.724-1.149C13.123,3.972,14.356,2.748,15.486,1.43"/>
<path fill="#3383C5" d="M9.159,5.571c1.435,0.629,2.857,1.287,4.275,1.952c-2.014,0.88-4.017,1.789-6.042,2.639
	C7.926,8.611,8.569,7.1,9.159,5.571"/>
<path fill="#3282C4" d="M17.575,7.518c1.406-0.672,2.834-1.291,4.245-1.948c0.643,1.519,1.228,3.064,1.814,4.605
	C21.604,9.319,19.594,8.405,17.575,7.518"/>
<path fill="#3482C4" d="M14.45,8.545c0.353-0.146,0.689-0.354,1.07-0.412c0.505,0.143,0.973,0.388,1.458,0.588
	c2.335,0.981,4.665,1.982,6.992,2.986c-2.789,1.259-5.631,2.402-8.437,3.624c-1.132-0.437-2.233-0.939-3.354-1.403
	c-1.717-0.753-3.46-1.444-5.167-2.221C9.493,10.656,11.966,9.587,14.45,8.545"/>
<path fill="#2B69B1" d="M4.066,11.771c3.151,1.397,6.308,2.782,9.468,4.16c-3.153,1.416-6.324,2.797-9.495,4.174
	C4.058,17.328,4.013,14.548,4.066,11.771"/>
<path fill="#2B69B1" d="M17.472,15.952c3.143-1.417,6.312-2.772,9.465-4.165c0.027,2.77,0.023,5.539,0.002,8.309
	C23.779,18.728,20.63,17.327,17.472,15.952"/>
<path fill="#2B69B1" d="M5.868,20.74c3.21-1.369,6.412-2.759,9.635-4.096c3.216,1.346,6.426,2.706,9.624,4.096
	c-3.202,1.378-6.411,2.742-9.621,4.101C12.29,23.484,9.077,22.114,5.868,20.74"/>
<path fill="#475677" d="M2.089,20.703c3.857,1.549,7.684,3.174,11.529,4.755c-2.642,1.168-5.281,2.35-7.944,3.464
	C4.494,26.177,3.328,23.424,2.089,20.703"/>
<path fill="#475677" d="M17.38,25.453c3.838-1.576,7.668-3.172,11.502-4.76c-1.173,2.75-2.382,5.488-3.563,8.235
	C22.664,27.792,20.022,26.622,17.38,25.453"/>
<path fill="#475677" d="M14.764,26.414c0.345-0.123,0.721-0.405,1.08-0.165c2.703,1.183,5.419,2.338,8.108,3.553
	c-2.475,1.116-4.981,2.163-7.457,3.276c-0.181,0.062-0.114,0.296-0.14,0.438c0,1.352,0.007,2.703,0.001,4.054
	c-0.567-0.003-1.135-0.005-1.703,0c-0.044-1.435,0.008-2.87-0.023-4.305c0.017-0.182-0.215-0.217-0.331-0.288
	c-2.422-1.059-4.852-2.101-7.264-3.183C9.612,28.665,12.192,27.55,14.764,26.414"/>
<path fill="#FFFFFF" d="M65.027,30.238c-1.53,0-2.918-0.3-4.163-0.897c-1.246-0.598-2.314-1.393-3.207-2.383
	c-0.893-0.99-1.585-2.123-2.075-3.398c-0.49-1.275-0.735-2.579-0.735-3.913c0-1.393,0.26-2.726,0.78-4.001
	c0.52-1.275,1.235-2.403,2.148-3.384c0.912-0.98,1.995-1.76,3.25-2.339c1.255-0.578,2.619-0.868,4.09-0.868
	c1.51,0,2.888,0.309,4.134,0.927c1.245,0.618,2.31,1.427,3.192,2.427c0.882,1,1.569,2.138,2.059,3.413s0.736,2.57,0.736,3.884
	c0,1.393-0.255,2.721-0.765,3.986c-0.51,1.266-1.216,2.383-2.119,3.354c-0.902,0.971-1.981,1.746-3.236,2.324
	C67.861,29.949,66.499,30.238,65.027,30.238z M58.966,19.646c0,0.902,0.137,1.776,0.412,2.619s0.672,1.589,1.191,2.235
	s1.157,1.167,1.913,1.56c0.755,0.393,1.613,0.589,2.574,0.589c0.981,0,1.849-0.201,2.604-0.604c0.755-0.402,1.393-0.938,1.912-1.604
	c0.52-0.667,0.912-1.417,1.177-2.251c0.265-0.834,0.397-1.682,0.397-2.545c0-0.902-0.143-1.775-0.426-2.619
	c-0.285-0.843-0.687-1.589-1.207-2.236c-0.52-0.647-1.158-1.162-1.913-1.544c-0.755-0.382-1.604-0.573-2.545-0.573
	c-0.981,0-1.854,0.201-2.618,0.603c-0.765,0.402-1.403,0.932-1.913,1.588c-0.51,0.658-0.897,1.403-1.162,2.236
	C59.099,17.936,58.966,18.784,58.966,19.646z"/>
<path fill="#FFFFFF" d="M77.091,19.5c0-1.275,0.229-2.535,0.69-3.781c0.462-1.245,1.134-2.358,2.016-3.339
	c0.883-0.98,1.961-1.775,3.236-2.383s2.726-0.912,4.354-0.912c1.923,0,3.584,0.422,4.987,1.266c1.402,0.843,2.446,1.941,3.133,3.295
	l-3.118,2.147c-0.275-0.588-0.608-1.084-1-1.486c-0.393-0.401-0.814-0.721-1.266-0.956s-0.923-0.407-1.413-0.515
	s-0.971-0.162-1.44-0.162c-1.021,0-1.908,0.206-2.663,0.618c-0.756,0.412-1.383,0.946-1.883,1.604
	c-0.501,0.657-0.878,1.402-1.133,2.236c-0.256,0.834-0.383,1.663-0.383,2.486c0,0.922,0.147,1.809,0.441,2.664
	c0.294,0.853,0.711,1.603,1.251,2.25c0.539,0.647,1.186,1.167,1.941,1.559c0.755,0.393,1.584,0.59,2.486,0.59
	c0.47,0,0.96-0.059,1.471-0.177s0.995-0.304,1.456-0.559c0.462-0.255,0.888-0.584,1.28-0.986c0.392-0.401,0.706-0.888,0.941-1.456
	l3.325,1.912c-0.335,0.785-0.81,1.476-1.428,2.074c-0.617,0.599-1.313,1.104-2.089,1.516c-0.774,0.412-1.604,0.726-2.485,0.941
	c-0.883,0.216-1.747,0.323-2.59,0.323c-1.491,0-2.854-0.313-4.09-0.941c-1.235-0.627-2.3-1.446-3.192-2.457
	c-0.893-1.01-1.588-2.157-2.089-3.442C77.341,22.143,77.091,20.834,77.091,19.5z"/>
<path fill="#FFFFFF" d="M98.538,9.231h4.061v20.86h-4.061V9.231z M102.402,19.146l8.768-9.944h4.864l-8.983,10.151l9.092,10.739
	h-4.562"/>
<g>
	<path fill="#FFFFFF" d="M125.513,9.307l1.793,1.171l-4.807,6.841c0.791-0.266,1.532-0.399,2.226-0.399
		c1.732,0,3.202,0.625,4.409,1.875c1.208,1.25,1.812,2.79,1.812,4.618c0,1.256-0.292,2.389-0.876,3.402
		c-0.583,1.013-1.412,1.817-2.485,2.416c-1.073,0.598-2.229,0.896-3.465,0.896c-1.197,0-2.308-0.289-3.332-0.866
		c-1.023-0.579-1.827-1.392-2.41-2.439c-0.584-1.047-0.876-2.168-0.876-3.364c0-0.89,0.18-1.825,0.541-2.809
		c0.362-0.984,1.008-2.167,1.938-3.551L125.513,9.307z M124.208,19.741c-0.997,0-1.847,0.351-2.551,1.054s-1.056,1.556-1.056,2.558
		c0,0.994,0.352,1.844,1.056,2.547c0.705,0.703,1.555,1.055,2.552,1.055c0.995,0,1.845-0.352,2.55-1.055
		c0.704-0.703,1.057-1.553,1.057-2.547c0-1.002-0.353-1.854-1.057-2.558C126.054,20.092,125.204,19.741,124.208,19.741z"/>
	<path fill="#FFFFFF" d="M142.668,9.52h0.405v14.192h2.425v2.996h-2.425v3.356h-2.979v-3.356h-8.603L142.668,9.52z M140.305,23.649
		v-5.8l-3.702,5.8H140.305z"/>
</g>
<polygon fill="#FFFFFF" points="127.306,10.478 128.666,9.899 123.18,17.953 121.69,17.19 "/>
<polygon fill="#FFFFFF" points="125.513,9.307 129.065,9.307 126.276,13.406 "/>
<g>
	<path fill="#FFFFFF" d="M53.424,30.084h-4.005l-3.266-8.644h-5.331v8.644h-3.79V9.055h9.121c2.537,0,4.4,0.572,5.592,1.718
		c1.192,1.145,1.788,2.626,1.788,4.445c0,2.701-1.263,4.56-3.79,5.578L53.424,30.084z M40.822,18.406h4.714
		c1.366,0,2.383-0.288,3.051-0.863c0.667-0.575,1.001-1.366,1.001-2.373c0-0.924-0.329-1.671-0.985-2.241
		c-0.658-0.57-1.577-0.855-2.758-0.855h-5.022V18.406z"/>
</g>
</svg>
