<?xml version="1.0" encoding="utf-8"?>
<!-- Generator: Adobe Illustrator 14.0.0, SVG Export Plug-In . SVG Version: 6.00 Build 43363)  -->
<!DOCTYPE svg PUBLIC "-//W3C//DTD SVG 1.1//EN" "http://www.w3.org/Graphics/SVG/1.1/DTD/svg11.dtd">
<svg version="1.1" id="Layer_1" fill="#B6E13F" xmlns="http://www.w3.org/2000/svg" xmlns:xlink="http://www.w3.org/1999/xlink"
	 viewBox="0 0 18 18" >
<path d="M7.999,15.341c-4.047,0-7.34-3.293-7.34-7.34c0-4.048,3.293-7.341,7.34-7.341c4.049,0,7.342,3.293,7.342,7.341
	C15.341,12.048,12.048,15.341,7.999,15.341L7.999,15.341z M7.999,1.548C4.442,1.548,1.547,4.442,1.547,8
	c0,3.557,2.896,6.452,6.452,6.452S14.452,11.558,14.452,8C14.452,4.442,11.556,1.548,7.999,1.548L7.999,1.548z"/>
<path d="M6.601,10.458c-0.124,0-0.247-0.051-0.335-0.152L4.434,8.208C4.273,8.023,4.291,7.742,4.477,7.581
	C4.661,7.42,4.942,7.438,5.103,7.623l1.541,1.764l4.297-3.735c0.186-0.162,0.467-0.141,0.627,0.043
	c0.16,0.185,0.141,0.466-0.045,0.627l-4.631,4.027C6.808,10.421,6.705,10.458,6.601,10.458L6.601,10.458z"/>
</svg>
